{"title":"The Buried Life S01E03 WS DSR Xvid-Dodecahedron [Dodecahedron]","uid":5344047,"size":168738124,"categoryP":"video","categoryS":"tv_shows","magnet":"?xt=urn:btih:6ecbbd8e8e71a4381e35197c63f85cec460395f4&amp;dn=The+Buried+Life+S01E03+WS+DSR+Xvid-Dodecahedron+%5BDodecahedron%5D&amp;tr=udp%3A%2F%2Ftracker.openbittorrent.com%3A80&amp;tr=udp%3A%2F%2Fopen.demonii.com%3A1337&amp;tr=udp%3A%2F%2Ftracker.coppersurfer.tk%3A6969&amp;tr=udp%3A%2F%2Fexodus.desync.com%3A6969","seeders":0,"leechers":1,"uploader":"Dodecahedron9","files":-1,"time":1265574592,"description":"The Buried Life S01E03 WS DSR Xvid-Dodecahedron [Dodecahedron] \n\n--\n\nSource by Dvsky, cropping fixed, logo removed, 2-pass compression + Direct stream copy.\n\n  General\n\n  Format : AVI\n  Format/Info : Audio Video Interleave\n  File size : 161 MiB\n  Duration : 21mn 10s\n  Overall bit rate : 1 062 Kbps\n\n  Video\n\n  Format : MPEG-4 Visual\n  Format profile : Streaming Video@L1\n  Format settings, BVOP : Yes\n  Format settings, QPel : No\n  Format settings, GMC : No warppoints\n  Format settings, Matrix : Default\n  Codec ID : XVID\n  Codec ID/Hint : XviD\n  Duration : 21mn 10s\n  Bit rate : 925 Kbps\n  Width : 624 pixels\n  Height : 326 pixels\n  Display aspect ratio : 1.914\n  Frame rate : 29.970 fps\n  Resolution : 24 bits\n  Colorimetry : 4:2:0\n  Scan type : Progressive\n  Bits/(Pixel*Frame) : 0.152\n  Stream size : 140 MiB (87%)\n  Writing library : XviD 50\n\n  Audio\n\n  Format : MPEG Audio\n  Format version : Version 1\n  Format profile : Layer 3\n  Codec ID : 55\n  Codec ID/Hint : MP3\n  Duration : 21mn 10s\n  Bit rate mode : Variable\n  Bit rate : 124 Kbps\n  Channel(s) : 2 channels\n  Sampling rate : 48.0 KHz\n  Resolution : 16 bits\n  Stream size : 18.8 MiB (12%)\n  Alignment : Aligned on interleaves\n  Interleave, duration : 24 ms (0.72 video frame)","torrent":{"xt":"urn:btih:6ecbbd8e8e71a4381e35197c63f85cec460395f4","amp;dn":"The+Buried+Life+S01E03+WS+DSR+Xvid-Dodecahedron+%5BDodecahedron%5D","amp;tr":["udp%3A%2F%2Ftracker.openbittorrent.com%3A80","udp%3A%2F%2Fopen.demonii.com%3A1337","udp%3A%2F%2Ftracker.coppersurfer.tk%3A6969","udp%3A%2F%2Fexodus.desync.com%3A6969"],"infoHash":"6ecbbd8e8e71a4381e35197c63f85cec460395f4","infoHashBuffer":{"type":"Buffer","data":[110,203,189,142,142,113,164,56,30,53,25,124,99,248,92,236,70,3,149,244]},"announce":[],"urlList":[]}}